<?xml version="1.0" encoding="UTF-8" standalone="no"?>
<svg
   xmlns:dc="http://purl.org/dc/elements/1.1/"
   xmlns:cc="http://creativecommons.org/ns#"
   xmlns:rdf="http://www.w3.org/1999/02/22-rdf-syntax-ns#"
   xmlns:svg="http://www.w3.org/2000/svg"
   xmlns="http://www.w3.org/2000/svg"
   xmlns:sodipodi="http://sodipodi.sourceforge.net/DTD/sodipodi-0.dtd"
   xmlns:inkscape="http://www.inkscape.org/namespaces/inkscape"
   viewBox="0 0 232 68"
   version="1.1"
   id="svg6"
   sodipodi:docname="logo-white.svg"
   inkscape:version="1.0.2 (1.0.2+r75+1)">
  <metadata
     id="metadata12">
    <rdf:RDF>
      <cc:Work
         rdf:about="">
        <dc:format>image/svg+xml</dc:format>
        <dc:type
           rdf:resource="http://purl.org/dc/dcmitype/StillImage" />
      </cc:Work>
    </rdf:RDF>
  </metadata>
  <defs
     id="defs10" />
  <sodipodi:namedview
     pagecolor="#ffffff"
     bordercolor="#666666"
     borderopacity="1"
     objecttolerance="10"
     gridtolerance="10"
     guidetolerance="10"
     inkscape:pageopacity="0"
     inkscape:pageshadow="2"
     inkscape:window-width="1366"
     inkscape:window-height="708"
     id="namedview8"
     showgrid="false"
     inkscape:snap-bbox="true"
     inkscape:bbox-paths="true"
     inkscape:bbox-nodes="true"
     inkscape:snap-bbox-edge-midpoints="true"
     inkscape:snap-bbox-midpoints="true"
     inkscape:object-paths="true"
     inkscape:snap-intersection-paths="true"
     inkscape:snap-smooth-nodes="true"
     inkscape:snap-midpoints="true"
     inkscape:snap-object-midpoints="true"
     inkscape:snap-center="true"
     inkscape:snap-text-baseline="true"
     inkscape:snap-page="true"
     inkscape:zoom="3.3507551"
     inkscape:cx="119.09189"
     inkscape:cy="50.285697"
     inkscape:window-x="0"
     inkscape:window-y="28"
     inkscape:window-maximized="1"
     inkscape:current-layer="g6"
     inkscape:document-rotation="0" />
  <g
     id="g6"
     transform="matrix(3.118145,0,0,3.118145,-0.69510857,-4.2737199)"
     inkscape:groupmode="layer"
     style="display:inline">
    <g
       aria-label="thrify"
       id="text16"
       style="font-style:normal;font-variant:normal;font-weight:500;font-stretch:normal;font-size:13.6834px;line-height:1.25;font-family:Ubuntu;-inkscape-font-specification:'Ubuntu Medium';letter-spacing:1.76387px;fill:#ffffff;stroke-width:0.320704">
      <path
         id="path20"
         style="font-style:normal;font-variant:normal;font-weight:500;font-stretch:normal;font-size:13.6834px;font-family:Ubuntu;-inkscape-font-specification:'Ubuntu Medium';fill:#ffffff;stroke-width:0.320704"
         sodipodi:type="inkscape:offset"
         inkscape:radius="0"
         inkscape:original="M 37.917969 5.9765625 L 36.261719 6.25 L 36.261719 16.595703 L 37.917969 16.595703 L 37.917969 10.902344 C 38.027436 10.865856 38.195771 10.82491 38.423828 10.779297 C 38.651885 10.733684 38.874815 10.710938 39.09375 10.710938 C 39.37654 10.710938 39.615073 10.751884 39.806641 10.833984 C 39.998208 10.906962 40.148345 11.029802 40.257812 11.203125 C 40.3764 11.367326 40.458293 11.58766 40.503906 11.861328 C 40.55864 12.125873 40.585938 12.448896 40.585938 12.832031 L 40.585938 16.595703 L 42.242188 16.595703 L 42.242188 12.572266 C 42.242188 12.079663 42.190189 11.631849 42.089844 11.230469 C 41.998621 10.829089 41.839385 10.487869 41.611328 10.205078 C 41.383271 9.9131658 41.078447 9.6902348 40.695312 9.5351562 C 40.321299 9.3709554 39.846187 9.2871094 39.271484 9.2871094 C 39.034306 9.2871094 38.793176 9.3098574 38.546875 9.3554688 C 38.309696 9.4010799 38.100414 9.4556753 37.917969 9.5195312 L 37.917969 5.9765625 z M 61.722656 5.9765625 C 60.746574 5.9765625 60.016683 6.2404398 59.533203 6.7695312 C 59.049723 7.2895004 58.808594 8.0102917 58.808594 8.9316406 L 58.808594 16.595703 L 60.462891 16.595703 L 60.462891 10.820312 L 63.064453 10.820312 L 63.064453 9.4375 L 60.462891 9.4375 L 60.462891 8.9589844 C 60.462891 8.7309277 60.485637 8.5216457 60.53125 8.3300781 C 60.576861 8.1293883 60.656158 7.9610528 60.765625 7.8242188 C 60.875092 7.6873848 61.02068 7.5827438 61.203125 7.5097656 C 61.38557 7.4276652 61.608502 7.3867188 61.873047 7.3867188 C 62.110226 7.3867188 62.328608 7.4094668 62.529297 7.4550781 C 62.73911 7.5006895 62.923047 7.5598344 63.078125 7.6328125 L 63.392578 6.2636719 C 63.246621 6.2089384 63.026288 6.1497935 62.734375 6.0859375 C 62.442463 6.0129594 62.105792 5.9765625 61.722656 5.9765625 z M 54.101562 6.3183594 C 53.818773 6.3183594 53.577643 6.4093515 53.376953 6.5917969 C 53.176263 6.7742422 53.076172 7.0264238 53.076172 7.3457031 C 53.076172 7.6558602 53.176263 7.901539 53.376953 8.0839844 C 53.577643 8.2664297 53.818773 8.3574219 54.101562 8.3574219 C 54.375231 8.3574219 54.613763 8.2664297 54.814453 8.0839844 C 55.015143 7.901539 55.115234 7.6558602 55.115234 7.3457031 C 55.115234 7.0264238 55.015143 6.7742422 54.814453 6.5917969 C 54.613763 6.4093515 54.375231 6.3183594 54.101562 6.3183594 z M 30.351562 7.2773438 L 28.695312 7.5507812 L 28.695312 13.748047 C 28.695313 14.222405 28.736259 14.647472 28.818359 15.021484 C 28.900459 15.386375 29.043451 15.700298 29.244141 15.964844 C 29.444831 16.220267 29.713257 16.417853 30.050781 16.554688 C 30.397427 16.691522 30.827044 16.759766 31.337891 16.759766 C 31.757515 16.759766 32.121484 16.71427 32.431641 16.623047 C 32.741798 16.540946 32.992026 16.4571 33.183594 16.375 L 32.910156 15.0625 C 32.773322 15.117237 32.586788 15.176381 32.349609 15.240234 C 32.121553 15.304088 31.857675 15.335938 31.556641 15.335938 C 31.118772 15.335937 30.807445 15.213098 30.625 14.966797 C 30.442555 14.720496 30.351562 14.309078 30.351562 13.734375 L 30.351562 10.820312 L 32.896484 10.820312 L 32.896484 9.4375 L 30.351562 9.4375 L 30.351562 7.2773438 z M 48.78125 9.2871094 C 48.197425 9.2871094 47.663168 9.3417047 47.179688 9.4511719 C 46.70533 9.5515168 46.309514 9.6626605 45.990234 9.78125 L 45.990234 16.595703 L 47.644531 16.595703 L 47.644531 10.861328 C 47.726632 10.833961 47.86767 10.802112 48.068359 10.765625 C 48.278172 10.729138 48.475758 10.710938 48.658203 10.710938 C 48.977482 10.710937 49.255009 10.738235 49.492188 10.792969 C 49.738489 10.838578 49.929572 10.884074 50.066406 10.929688 L 50.353516 9.5351562 C 50.271416 9.5077896 50.162225 9.4785385 50.025391 9.4511719 C 49.888557 9.4146832 49.747519 9.3873853 49.601562 9.3691406 C 49.455606 9.3417733 49.310019 9.3235751 49.164062 9.3144531 C 49.018106 9.2962085 48.890717 9.2871094 48.78125 9.2871094 z M 53.28125 9.4375 L 53.28125 16.595703 L 54.9375 16.595703 L 54.9375 9.4375 L 53.28125 9.4375 z M 65.347656 9.4375 C 65.721669 10.769351 66.144783 12.028949 66.619141 13.214844 C 67.102621 14.400738 67.605031 15.496551 68.125 16.5 C 67.942555 16.928747 67.728723 17.242669 67.482422 17.443359 C 67.245243 17.653171 66.911169 17.757812 66.482422 17.757812 C 66.163143 17.757812 65.840121 17.694118 65.511719 17.566406 L 65.210938 18.894531 C 65.338649 18.958388 65.525183 19.017532 65.771484 19.072266 C 66.026908 19.126999 66.281686 19.154297 66.537109 19.154297 C 66.920245 19.154297 67.258869 19.108801 67.550781 19.017578 C 67.842694 18.935477 68.106571 18.797036 68.34375 18.605469 C 68.580929 18.413901 68.794761 18.172772 68.986328 17.880859 C 69.177895 17.588947 69.366383 17.238627 69.548828 16.828125 C 70.524911 14.620536 71.38219 12.155935 72.121094 9.4375 L 70.410156 9.4375 C 70.200344 10.294993 69.968314 11.186073 69.712891 12.107422 C 69.457467 13.019649 69.182538 13.881477 68.890625 14.693359 C 68.717302 14.301101 68.544417 13.876035 68.371094 13.419922 C 68.19777 12.963809 68.033984 12.508848 67.878906 12.052734 C 67.723828 11.587499 67.57824 11.130585 67.441406 10.683594 C 67.313694 10.236603 67.204504 9.8206354 67.113281 9.4375 L 65.347656 9.4375 z "
         d="M 37.917969,5.9765625 36.261719,6.25 v 10.345703 h 1.65625 v -5.693359 c 0.109467,-0.03649 0.277802,-0.07743 0.505859,-0.123047 0.228057,-0.04561 0.450987,-0.06836 0.669922,-0.06836 0.28279,0 0.521323,0.04095 0.712891,0.123046 0.191567,0.07298 0.341704,0.195818 0.451171,0.369141 0.118588,0.164201 0.200481,0.384535 0.246094,0.658203 0.05473,0.264545 0.08203,0.587568 0.08203,0.970703 v 3.763672 h 1.65625 v -4.023437 c 0,-0.492603 -0.052,-0.940417 -0.152344,-1.341797 -0.09122,-0.40138 -0.250459,-0.7426 -0.478516,-1.025391 C 41.383271,9.9131658 41.078447,9.6902348 40.695312,9.5351562 40.321299,9.3709554 39.846187,9.2871094 39.271484,9.2871094 c -0.237178,0 -0.478308,0.022748 -0.724609,0.068359 -0.237179,0.045611 -0.446461,0.1002065 -0.628906,0.1640624 z m 23.804687,0 c -0.976082,0 -1.705973,0.2638773 -2.189453,0.7929687 -0.48348,0.5199692 -0.724609,1.2407605 -0.724609,2.1621094 v 7.6640624 h 1.654297 v -5.775391 h 2.601562 V 9.4375 H 60.462891 V 8.9589844 c 0,-0.2280567 0.02275,-0.4373387 0.06836,-0.6289063 0.04561,-0.2006898 0.124908,-0.3690253 0.234375,-0.5058593 0.109467,-0.136834 0.255055,-0.241475 0.4375,-0.3144532 0.182445,-0.0821 0.405377,-0.1230468 0.669922,-0.1230468 0.237179,0 0.455561,0.022748 0.65625,0.068359 0.209813,0.045611 0.39375,0.1047563 0.548828,0.1777344 L 63.392578,6.2636719 C 63.246621,6.2089384 63.026288,6.1497935 62.734375,6.0859375 62.442463,6.0129594 62.105792,5.9765625 61.722656,5.9765625 Z m -7.621094,0.3417969 c -0.282789,0 -0.523919,0.090992 -0.724609,0.2734375 -0.20069,0.1824453 -0.300781,0.4346269 -0.300781,0.7539062 0,0.3101571 0.100091,0.5558359 0.300781,0.7382813 0.20069,0.1824453 0.44182,0.2734375 0.724609,0.2734375 0.273669,0 0.512201,-0.090992 0.712891,-0.2734375 0.20069,-0.1824454 0.300781,-0.4281242 0.300781,-0.7382813 0,-0.3192793 -0.100091,-0.5714609 -0.300781,-0.7539062 -0.20069,-0.1824454 -0.439222,-0.2734375 -0.712891,-0.2734375 z m -23.75,0.9589844 -1.65625,0.2734374 v 6.1972658 c 10e-7,0.474358 0.04095,0.899425 0.123047,1.273437 0.0821,0.364891 0.225092,0.678814 0.425782,0.94336 0.20069,0.255423 0.469116,0.453009 0.80664,0.589844 0.346646,0.136834 0.776263,0.205078 1.28711,0.205078 0.419624,0 0.783593,-0.0455 1.09375,-0.136719 0.310157,-0.0821 0.560385,-0.165947 0.751953,-0.248047 l -0.273438,-1.3125 c -0.136834,0.05474 -0.323368,0.113881 -0.560547,0.177734 -0.228056,0.06385 -0.491934,0.0957 -0.792968,0.0957 -0.437869,-1e-6 -0.749196,-0.12284 -0.931641,-0.369141 -0.182445,-0.246301 -0.273438,-0.657719 -0.273438,-1.232422 v -2.914063 h 2.544922 V 9.4375 H 30.351562 Z M 48.78125,9.2871094 c -0.583825,0 -1.118082,0.054595 -1.601562,0.1640625 C 46.70533,9.5515168 46.309514,9.6626605 45.990234,9.78125 v 6.814453 h 1.654297 v -5.734375 c 0.0821,-0.02737 0.223139,-0.05922 0.423828,-0.0957 0.209813,-0.03649 0.407399,-0.05469 0.589844,-0.05469 0.319279,-1e-6 0.596806,0.0273 0.833985,0.08203 0.246301,0.04561 0.437384,0.09111 0.574218,0.136719 l 0.28711,-1.3945318 c -0.0821,-0.027367 -0.191291,-0.056618 -0.328125,-0.083984 -0.136834,-0.036489 -0.277872,-0.063787 -0.423829,-0.082031 -0.145956,-0.027367 -0.291543,-0.045566 -0.4375,-0.054687 -0.145956,-0.018245 -0.273345,-0.027344 -0.382812,-0.027344 z m 4.5,0.1503906 v 7.158203 H 54.9375 V 9.4375 Z m 12.066406,0 c 0.374013,1.331851 0.797127,2.591449 1.271485,3.777344 0.48348,1.185894 0.98589,2.281707 1.505859,3.285156 -0.182445,0.428747 -0.396277,0.742669 -0.642578,0.943359 -0.237179,0.209812 -0.571253,0.314453 -1,0.314453 -0.319279,0 -0.642301,-0.06369 -0.970703,-0.191406 l -0.300781,1.328125 c 0.127711,0.06386 0.314245,0.123001 0.560546,0.177735 0.255424,0.05473 0.510202,0.08203 0.765625,0.08203 0.383136,0 0.72176,-0.0455 1.013672,-0.136719 0.291913,-0.0821 0.55579,-0.220542 0.792969,-0.412109 0.237179,-0.191568 0.451011,-0.432697 0.642578,-0.72461 0.191567,-0.291912 0.380055,-0.642232 0.5625,-1.052734 0.976083,-2.207589 1.833362,-4.67219 2.572266,-7.390625 h -1.710938 c -0.209812,0.857493 -0.441842,1.748573 -0.697265,2.669922 -0.255424,0.912227 -0.530353,1.774055 -0.822266,2.585937 -0.173323,-0.392258 -0.346208,-0.817324 -0.519531,-1.273437 -0.173324,-0.456113 -0.33711,-0.911074 -0.492188,-1.367188 -0.155078,-0.465235 -0.300666,-0.922149 -0.4375,-1.36914 C 67.313694,10.236603 67.204504,9.8206354 67.113281,9.4375 Z" />
    </g>
    <path
       d="m 16.728505,6.2745155 h -2 c 0,-2.21 -1.79,-3.9999999 -4,-3.9999999 -2.2099997,0 -3.9999997,1.7899999 -3.9999997,3.9999999 h -2 c -1.1,0 -2,0.9 -2,2.0000001 V 20.274516 c 0,1.1 0.9,2 2,2 H 16.728505 c 1.1,0 2,-0.9 2,-2 V 8.2745156 c 0,-1.1000001 -0.9,-2.0000001 -2,-2.0000001 z M 8.7285053,10.274516 c 0,0.55 -0.45,1 -1,1 -0.55,0 -1,-0.45 -1,-1 V 8.2745156 h 2 z M 10.728505,4.2745155 c 1.1,0 2,0.9 2,2 H 8.7285053 c 0,-1.1 0.9,-2 1.9999997,-2 z m 4,6.0000005 c 0,0.55 -0.45,1 -1,1 -0.55,0 -1,-0.45 -1,-1 V 8.2745156 h 2 z"
       id="path4"
       style="display:inline;fill:#ffffff" />
  </g>
</svg>
