<?xml version="1.0" encoding="UTF-8" standalone="no"?>
<svg
   xmlns:dc="http://purl.org/dc/elements/1.1/"
   xmlns:cc="http://creativecommons.org/ns#"
   xmlns:rdf="http://www.w3.org/1999/02/22-rdf-syntax-ns#"
   xmlns:svg="http://www.w3.org/2000/svg"
   xmlns="http://www.w3.org/2000/svg"
   xmlns:sodipodi="http://sodipodi.sourceforge.net/DTD/sodipodi-0.dtd"
   xmlns:inkscape="http://www.inkscape.org/namespaces/inkscape"
   viewBox="0 0 232 68"
   version="1.1"
   id="svg6"
   sodipodi:docname="logo-white.svg"
   inkscape:version="1.0.2 (1.0.2+r75+1)">
  <metadata
     id="metadata12">
    <rdf:RDF>
      <cc:Work
         rdf:about="">
        <dc:format>image/svg+xml</dc:format>
        <dc:type
           rdf:resource="http://purl.org/dc/dcmitype/StillImage" />
      </cc:Work>
    </rdf:RDF>
  </metadata>
  <defs
     id="defs10" />
  <sodipodi:namedview
     pagecolor="#ffffff"
     bordercolor="#666666"
     borderopacity="1"
     objecttolerance="10"
     gridtolerance="10"
     guidetolerance="10"
     inkscape:pageopacity="0"
     inkscape:pageshadow="2"
     inkscape:window-width="1366"
     inkscape:window-height="708"
     id="namedview8"
     showgrid="false"
     inkscape:snap-bbox="true"
     inkscape:bbox-paths="true"
     inkscape:bbox-nodes="true"
     inkscape:snap-bbox-edge-midpoints="true"
     inkscape:snap-bbox-midpoints="true"
     inkscape:object-paths="true"
     inkscape:snap-intersection-paths="true"
     inkscape:snap-smooth-nodes="true"
     inkscape:snap-midpoints="true"
     inkscape:snap-object-midpoints="true"
     inkscape:snap-center="true"
     inkscape:snap-text-baseline="true"
     inkscape:snap-page="true"
     inkscape:zoom="3.3507551"
     inkscape:cx="119.39033"
     inkscape:cy="50.285697"
     inkscape:window-x="0"
     inkscape:window-y="28"
     inkscape:window-maximized="1"
     inkscape:current-layer="g6" />
  <g
     id="g6"
     transform="matrix(3.118145,0,0,3.118145,-0.69510857,-4.2737199)"
     inkscape:groupmode="layer"
     style="display:inline">
    <text
       xml:space="preserve"
       style="font-style:normal;font-variant:normal;font-weight:500;font-stretch:normal;font-size:13.6834px;line-height:1.25;font-family:Ubuntu;-inkscape-font-specification:'Ubuntu Medium';letter-spacing:1.76387px;stroke-width:0.320704;fill:#ffffff;"
       x="27.724541"
       y="16.594816"
       id="text16"><tspan
         sodipodi:role="line"
         id="tspan14"
         x="27.724541"
         y="16.594816"
         style="font-style:normal;font-variant:normal;font-weight:500;font-stretch:normal;font-size:13.6834px;font-family:Ubuntu;-inkscape-font-specification:'Ubuntu Medium';stroke-width:0.320704;fill:#ffffff;">thrify</tspan></text>
    <path
       d="m 16.728505,6.2745155 h -2 c 0,-2.21 -1.79,-3.9999999 -4,-3.9999999 -2.2099997,0 -3.9999997,1.7899999 -3.9999997,3.9999999 h -2 c -1.1,0 -2,0.9 -2,2.0000001 V 20.274516 c 0,1.1 0.9,2 2,2 H 16.728505 c 1.1,0 2,-0.9 2,-2 V 8.2745156 c 0,-1.1000001 -0.9,-2.0000001 -2,-2.0000001 z M 8.7285053,10.274516 c 0,0.55 -0.45,1 -1,1 -0.55,0 -1,-0.45 -1,-1 V 8.2745156 h 2 z M 10.728505,4.2745155 c 1.1,0 2,0.9 2,2 H 8.7285053 c 0,-1.1 0.9,-2 1.9999997,-2 z m 4,6.0000005 c 0,0.55 -0.45,1 -1,1 -0.55,0 -1,-0.45 -1,-1 V 8.2745156 h 2 z"
       id="path4"
       style="display:inline;fill:#ffffff" />
  </g>
</svg>
